<?xml version="1.0" encoding="UTF-8" standalone="no"?>
<svg width="134px" height="32px" viewBox="0 0 134 32" version="1.1" xmlns="http://www.w3.org/2000/svg" xmlns:xlink="http://www.w3.org/1999/xlink">
    <!-- Generator: Sketch 42 (36781) - http://www.bohemiancoding.com/sketch -->
    <title>logo formation business lab</title>
    <desc>Created with Sketch.</desc>
    <defs></defs>
    <g id="Symbols" stroke="none" stroke-width="1" fill="none" fill-rule="evenodd">
        <g id="logo-formation-business-lab" fill="#F36C91">
            <text id="B-COME" font-family="FiraSans-Bold, Fira Sans" font-size="24" font-weight="bold" letter-spacing="0.4375">
                <tspan x="34" y="25">B-COME</tspan>
            </text>
            <g id="logo-raccourci-air-liquide" transform="translate(0.000000, 3.000000)" fill-rule="nonzero">
                <path d="M13.0058441,0.461215805 L0.0470221585,0.461215805 L0.0470221585,13.6195441 C0.0470221585,20.9027052 5.83311015,26.7778723 13.0058441,26.7778723 C20.178578,26.7778723 25.964666,20.9024316 25.964666,13.6195441 C25.964666,6.38480243 20.178578,0.461215805 13.0058441,0.461215805 Z M22.187019,22.9417933 L13.0058441,22.9417933 C7.93719114,22.9417933 3.82466922,18.766231 3.82466922,13.6192705 C3.82466922,8.47258359 7.93692173,4.29674772 13.0058441,4.29674772 C18.0747665,4.29674772 22.187019,8.47258359 22.187019,13.6192705 L22.187019,22.9417933 Z M13.0058441,8.03571429 C16.0183708,8.03571429 18.505012,10.5119453 18.505012,13.6195441 L18.505012,19.1549544 L13.0058441,19.1549544 C9.99331739,19.1549544 7.50667623,16.6784498 7.50667623,13.5708511 C7.50667623,10.5603647 9.99331739,8.03571429 13.0058441,8.03571429 Z" id="Shape"></path>
            </g>
        </g>
    </g>
</svg>