<?xml version="1.0" encoding="UTF-8" standalone="no"?>
<svg width="214px" height="50px" viewBox="0 0 214 50" version="1.1" xmlns="http://www.w3.org/2000/svg" xmlns:xlink="http://www.w3.org/1999/xlink">
    <!-- Generator: Sketch 42 (36781) - http://www.bohemiancoding.com/sketch -->
    <title>logo air liquide</title>
    <desc>Created with Sketch.</desc>
    <defs></defs>
    <g id="Symbols" stroke="none" stroke-width="1" fill="none" fill-rule="evenodd">
        <g id="logo-air-liquide" fill-rule="nonzero">
            <g id="Group-2">
                <path d="M85.2832026,18.7689362 L85.2832026,21.1102128 C85.5092157,20.6570213 86.9421895,18.24 89.8829085,18.24 L90.7878105,18.24 L90.7878105,22.2429787 L89.8829085,22.2429787 C87.2438235,22.2429787 85.7356536,24.2068085 85.7356536,26.6238298 L85.7356536,35.6114894 L80.9851307,35.6114894 L80.9851307,18.7685106 L85.2832026,18.7685106 L85.2832026,18.7689362 Z" id="Shape" fill="#D7001E"></path>
                <path d="M134.447418,27.0012766 C134.447418,24.433617 132.33598,22.3940426 129.696895,22.3940426 C127.133007,22.3940426 125.021569,24.3578723 125.021569,26.8502128 C124.945948,29.4178723 126.98219,31.6089362 129.696895,31.6089362 L134.447418,31.6089362 L134.447418,27.0012766 Z M134.824673,20.8080851 L134.824673,18.7689362 L139.122745,18.7689362 L139.122745,41.6544681 L134.372222,41.6544681 L134.372222,35.6876596 L129.470882,35.6876596 C124.493922,35.6876596 120.573105,31.7604255 120.573105,26.926383 C120.573105,21.9412766 124.644739,18.1651064 129.169248,18.1651064 C132.939673,18.1646809 134.824673,20.8080851 134.824673,20.8080851 Z" id="Shape" fill="#D7001E"></path>
                <path d="M76.2346078,18.7689362 L76.2346078,35.687234 L71.4836601,35.687234 L71.4836601,18.7689362 L76.2346078,18.7689362 Z M76.2346078,12.5 L76.2346078,16.5787234 L71.4836601,16.5787234 L71.4836601,12.5 L76.2346078,12.5 Z" id="Shape" fill="#D7001E"></path>
                <path d="M58.4386275,16.5782979 C55.4222876,16.5782979 52.9340196,18.9195745 52.9340196,21.7897872 L52.9340196,24.2068085 L61.4549673,24.2068085 L61.4549673,16.5782979 L58.4386275,16.5782979 Z M61.5301634,35.687234 L61.5301634,27.9834043 L53.0092157,27.9834043 L53.0092157,35.6114894 L48.1834967,35.6114894 L48.1834967,22.167234 C48.1834967,16.8046809 52.7832026,12.4995745 58.4386275,12.4995745 L66.2806863,12.4995745 L66.2806863,35.6114894 L61.5301634,35.6114894 L61.5301634,35.687234 L61.5301634,35.687234 Z" id="Shape" fill="#D7001E"></path>
                <path d="M117.255556,12.5 L117.255556,16.5787234 L112.504608,16.5787234 L112.504608,12.5 L117.255556,12.5 Z M117.255556,18.7689362 L117.255556,35.687234 L112.504608,35.687234 L112.504608,18.7689362 L117.255556,18.7689362 Z" id="Shape" fill="#D7001E"></path>
                <path d="M169.737745,12.5 L169.737745,16.5787234 L164.987222,16.5787234 L164.987222,12.5 L169.737745,12.5 Z M169.737745,18.7689362 L169.737745,35.687234 L164.987222,35.687234 L164.987222,18.7689362 L169.737745,18.7689362 Z" id="Shape" fill="#D7001E"></path>
                <path d="M143.345621,18.7689362 L148.096569,18.7689362 L148.096569,28.2097872 C148.096569,30.7778723 149.981993,32.1374468 151.866993,32.1374468 C153.676797,32.1374468 155.712614,30.9289362 155.712614,28.2097872 L155.712614,18.7689362 L160.463562,18.7689362 L160.463562,35.687234 L156.089869,35.687234 L156.089869,33.6480851 L156.014248,33.7234043 C154.65732,35.3102128 152.696275,36.2157447 150.43402,36.2157447 C146.814412,36.2157447 143.346046,33.1944681 143.346046,28.8893617 L143.345621,18.7689362 Z" id="Shape" fill="#D7001E"></path>
                <polygon id="Shape" fill="#D7001E" points="103.154379 12.5 103.154379 31.6089362 109.337451 31.6089362 109.337451 35.687234 98.4038562 35.687234 98.4038562 12.5"></polygon>
                <path d="M186.930458,27.4548936 C186.930458,30.0225532 184.81902,32.0621277 182.179935,32.0621277 C179.616046,32.0621277 177.580229,30.0982979 177.504608,27.6055319 C177.428987,25.0378723 179.465229,22.847234 182.179935,22.847234 L186.930458,22.847234 L186.930458,27.4548936 Z M187.382908,33.572766 L187.382908,35.6119149 L191.68098,35.6119149 L191.68098,12.5 L186.930033,12.5 L186.930033,18.693617 L182.028693,18.693617 C177.052157,18.693617 173.130915,22.6212766 173.130915,27.4548936 C173.130915,32.44 177.202974,36.2161702 181.727059,36.2161702 C185.422288,36.2157447 187.382908,33.572766 187.382908,33.572766 Z" id="Shape" fill="#D7001E"></path>
                <path d="M199.59866,25.6421277 L209.250523,25.6421277 C208.572059,23.527234 206.988693,22.0923404 204.575621,22.0923404 C202.162549,22.0923404 200.352745,23.6025532 199.59866,25.6421277 Z M204.650817,36.2157447 C199.372222,36.2157447 195.07415,32.2131915 195.07415,27.2280851 C195.07415,22.2429787 199.372222,18.24 204.650817,18.24 C209.928987,18.24 213.850229,22.2429787 213.850229,27.2280851 C213.850229,27.6808511 213.850229,28.2097872 213.774608,28.7387234 L199.598235,28.7387234 C200.277124,30.853617 202.162124,32.3642553 204.575196,32.3642553 C206.837026,32.3642553 208.194804,31.6842553 209.325719,30.3251064 L212.718889,32.5148936 C210.90951,34.7808511 208.119608,36.2157447 204.650817,36.2157447 Z" id="Shape" fill="#D7001E"></path>
                <path d="M20.5092157,0.717446809 L0.0741503268,0.717446809 L0.0741503268,21.1859574 C0.0741503268,32.5153191 9.19836601,41.6544681 20.5092157,41.6544681 C31.8200654,41.6544681 40.944281,32.5148936 40.944281,21.1859574 C40.944281,9.93191489 31.8200654,0.717446809 20.5092157,0.717446809 Z M34.9872222,35.687234 L20.5092157,35.687234 C12.5163399,35.687234 6.03120915,29.1919149 6.03120915,21.1855319 C6.03120915,13.1795745 12.515915,6.68382979 20.5092157,6.68382979 C28.5025163,6.68382979 34.9872222,13.1795745 34.9872222,21.1855319 L34.9872222,35.687234 Z M20.5092157,12.5 C25.2597386,12.5 29.1809804,16.3519149 29.1809804,21.1859574 L29.1809804,29.7965957 L20.5092157,29.7965957 C15.7586928,29.7965957 11.837451,25.9442553 11.837451,21.1102128 C11.837451,16.427234 15.7586928,12.5 20.5092157,12.5 Z" id="Shape" fill="#375F9B"></path>
                <path d="M51.0485948,47.7723404 C50.5961438,47.7723404 50.2188889,47.6965957 49.8420588,47.5459574 C49.4648039,47.3948936 49.1631699,47.1680851 48.9371569,46.8659574 C48.710719,46.5638298 48.4847059,46.2617021 48.3338889,45.8838298 C48.1830719,45.5059574 48.107451,45.1285106 48.107451,44.6753191 C48.107451,44.2221277 48.1830719,43.8446809 48.3338889,43.4668085 C48.4847059,43.0889362 48.6355229,42.7114894 48.9371569,42.4846809 C49.1631699,42.1825532 49.4648039,41.9561702 49.8420588,41.8046809 C50.2188889,41.6540426 50.5961438,41.5782979 51.0485948,41.5782979 C51.7274837,41.5782979 52.3307516,41.7289362 52.7832026,42.1068085 C53.2356536,42.4846809 53.5372876,43.0131915 53.6124837,43.6174468 L52.7075817,43.6174468 C52.6323856,43.24 52.4815686,42.8625532 52.1799346,42.6357447 C51.8783007,42.4089362 51.5766667,42.2578723 51.1242157,42.2578723 C50.8225817,42.2578723 50.5209477,42.333617 50.2949346,42.4085106 C50.0684967,42.5595745 49.8424837,42.7106383 49.6916667,42.9374468 C49.5408497,43.1638298 49.3900327,43.3902128 49.3144118,43.6923404 C49.2392157,43.9944681 49.1635948,44.2965957 49.1635948,44.5987234 C49.1635948,44.9008511 49.2392157,45.2029787 49.3144118,45.5051064 C49.3900327,45.807234 49.5408497,46.033617 49.6916667,46.2604255 C49.8424837,46.4868085 50.0684967,46.6378723 50.2949346,46.7889362 C50.5209477,46.94 50.8225817,46.94 51.1242157,46.94 C51.5766667,46.94 51.9539216,46.7889362 52.2555556,46.5621277 C52.5571895,46.3353191 52.7080065,45.9578723 52.7080065,45.5046809 L53.6129085,45.5046809 C53.5377124,46.26 53.3112745,46.7889362 52.8588235,47.166383 C52.4063725,47.5438298 51.8026797,47.7723404 51.0485948,47.7723404 Z" id="Shape" fill="#375F9B"></path>
                <path d="M55.8747386,42.6361702 L55.8747386,42.6361702 C56.1007516,42.3340426 56.3271895,42.107234 56.6288235,41.8808511 C56.9304575,41.6544681 57.3072876,41.5787234 57.6845425,41.5787234 L57.9105556,41.5787234 C57.9861765,41.5787234 57.9861765,41.5787234 58.0613725,41.6544681 L58.0613725,42.5608511 L58.0613725,42.5608511 C57.9861765,42.5608511 57.9105556,42.4851064 57.8353595,42.4851064 L57.6089216,42.4851064 C57.3829085,42.4851064 57.1564706,42.5608511 56.9304575,42.6361702 C56.7040196,42.7114894 56.5532026,42.8625532 56.4023856,43.013617 C56.2515686,43.1646809 56.1007516,43.3914894 56.0251307,43.6178723 C55.9499346,43.8446809 55.8747386,44.0710638 55.8747386,44.3731915 L55.8747386,47.6965957 L54.9698366,47.6965957 L54.9698366,41.7302128 L55.8747386,41.7302128 L55.8747386,42.6361702 Z" id="Shape" fill="#375F9B"></path>
                <path d="M61.9069935,47.7723404 C61.4545425,47.7723404 61.0777124,47.6965957 60.7004575,47.5459574 C60.3232026,47.3948936 60.0215686,47.1680851 59.7955556,46.8659574 C59.5691176,46.5638298 59.3431046,46.2617021 59.2674837,45.8838298 C59.1166667,45.5059574 59.0414706,45.1285106 59.0414706,44.6753191 C59.0414706,44.2221277 59.1166667,43.8446809 59.2674837,43.4668085 C59.4183007,43.0889362 59.5691176,42.7114894 59.8707516,42.4846809 C60.0971895,42.1825532 60.3988235,41.9561702 60.7756536,41.8046809 C61.1524837,41.6540426 61.5297386,41.5782979 61.9065686,41.5782979 C62.3590196,41.5782979 62.7362745,41.6540426 63.1131046,41.8046809 C63.4903595,41.9557447 63.7163725,42.1825532 63.9428105,42.4846809 C64.1688235,42.7868085 64.3196405,43.1646809 64.4704575,43.5421277 C64.6212745,43.9195745 64.6212745,44.372766 64.6212745,44.9012766 L60.0215686,44.9012766 C60.0215686,45.2034043 60.0971895,45.5055319 60.1723856,45.7323404 C60.2480065,45.9587234 60.3988235,46.1851064 60.5496405,46.4119149 C60.7004575,46.6387234 60.9268954,46.7897872 61.1529085,46.8651064 C61.3793464,46.9408511 61.6809804,47.0157447 61.9826144,47.0157447 C62.4350654,47.0157447 62.8118954,46.9404255 63.0383333,46.713617 C63.3399673,46.487234 63.4907843,46.1851064 63.6416013,45.807234 L64.5465033,45.807234 C64.3956863,46.487234 64.0940523,46.9404255 63.6416013,47.3178723 C63.1891503,47.6208511 62.5858824,47.7723404 61.9069935,47.7723404 Z M61.8317974,42.2587234 C61.5301634,42.2587234 61.3037255,42.3344681 61.0777124,42.4093617 C60.8512745,42.4851064 60.7004575,42.6361702 60.5496405,42.787234 C60.3988235,42.9382979 60.2480065,43.1651064 60.1723856,43.3914894 C60.0971895,43.6178723 60.0215686,43.8446809 60.0215686,44.1468085 L63.5655556,44.1468085 C63.5655556,43.5425532 63.3395425,43.0893617 63.0379085,42.7114894 C62.8118954,42.4093617 62.4350654,42.2587234 61.8317974,42.2587234 Z" id="Shape" fill="#375F9B"></path>
                <path d="M70.6543791,47.6965957 C70.0511111,47.6965957 69.7494771,47.3944681 69.5986601,46.7902128 L69.5986601,46.7902128 C69.5230392,46.9412766 69.3722222,47.0165957 69.2970261,47.1680851 C69.1462092,47.2438298 68.9953922,47.3944681 68.8445752,47.4702128 C68.6937582,47.5459574 68.4673203,47.6208511 68.3165033,47.6965957 C68.0904902,47.7723404 67.8640523,47.7723404 67.6380392,47.7723404 C67.3364052,47.7723404 67.1099673,47.7723404 66.8083333,47.6965957 C66.5823203,47.6208511 66.3558824,47.5459574 66.1298693,47.3944681 C65.9790523,47.2438298 65.8282353,47.0923404 65.6774183,46.8659574 C65.6017974,46.6395745 65.5266013,46.412766 65.5266013,46.1106383 C65.5266013,45.7331915 65.6017974,45.506383 65.7526144,45.28 C65.9034314,45.053617 66.0542484,44.9021277 66.2806863,44.7514894 C66.5066993,44.6004255 66.8083333,44.5246809 67.1099673,44.4493617 C67.4116013,44.373617 67.7888562,44.2982979 68.1656863,44.2225532 C68.3921242,44.2225532 68.5429412,44.147234 68.7689542,44.147234 C68.9197712,44.0714894 69.0705882,44.0714894 69.2214052,43.9961702 C69.3722222,43.9208511 69.4478431,43.8455319 69.5230392,43.7697872 C69.5986601,43.6940426 69.5986601,43.5434043 69.5986601,43.3919149 C69.5986601,43.0897872 69.4478431,42.7876596 69.2214052,42.6370213 C68.9953922,42.4859574 68.6937582,42.3348936 68.2413072,42.3348936 C67.7888562,42.3348936 67.4116013,42.4102128 67.1855882,42.6370213 C66.9591503,42.8634043 66.8083333,43.1655319 66.8083333,43.6187234 L65.9034314,43.6187234 C65.9034314,43.3165957 65.9790523,43.0902128 66.0542484,42.7880851 C66.1298693,42.5617021 66.2806863,42.3353191 66.5066993,42.1080851 C66.7331373,41.9574468 66.9591503,41.8059574 67.2607843,41.7306383 C67.5624183,41.6548936 67.9396732,41.5795745 68.3165033,41.5795745 C68.6181373,41.5795745 68.9197712,41.5795745 69.2214052,41.6553191 C69.5230392,41.7310638 69.7494771,41.8059574 69.9002941,41.9574468 C70.126732,42.1080851 70.277549,42.3353191 70.3527451,42.5617021 C70.5035621,42.7880851 70.5035621,43.0902128 70.5035621,43.4680851 L70.5035621,46.3382979 C70.5035621,46.5646809 70.579183,46.7910638 70.6543791,46.8668085 C70.73,47.0174468 70.880817,47.0174468 71.182451,46.9425532 L71.182451,46.9425532 L71.182451,47.6221277 C71.1068301,47.6221277 71.031634,47.6978723 70.9560131,47.6978723 C70.8803922,47.6208511 70.8051961,47.6965957 70.6543791,47.6965957 Z M67.8640523,47.0165957 C68.1656863,47.0165957 68.4673203,46.9412766 68.6937582,46.8659574 C68.9197712,46.7902128 69.1462092,46.6395745 69.2214052,46.4880851 C69.3722222,46.3374468 69.4478431,46.1859574 69.5230392,45.9595745 C69.5986601,45.7331915 69.6738562,45.5817021 69.6738562,45.4306383 L69.6738562,44.4489362 C69.5230392,44.5242553 69.2970261,44.5995745 69.0705882,44.6753191 C68.8445752,44.7510638 68.5429412,44.8259574 68.3165033,44.8259574 C68.0904902,44.9017021 67.8640523,44.9017021 67.6380392,44.9770213 C67.4116013,45.052766 67.2607843,45.1280851 67.1099673,45.2034043 C66.9591503,45.2791489 66.8083333,45.4297872 66.7331373,45.5055319 C66.6575163,45.6565957 66.5823203,45.8076596 66.5823203,46.0344681 C66.5823203,46.2608511 66.5823203,46.4119149 66.6575163,46.5629787 C66.7331373,46.713617 66.8083333,46.7893617 66.9591503,46.8651064 C67.1099673,46.9408511 67.1855882,47.0157447 67.3364052,47.0157447 C67.5624183,47.0165957 67.7132353,47.0165957 67.8640523,47.0165957 Z" id="Shape" fill="#375F9B"></path>
                <path d="M71.9361111,41.6544681 L72.7653922,41.6544681 L72.7653922,39.7659574 L73.6702941,39.7659574 L73.6702941,41.6544681 L74.801634,41.6544681 L74.801634,42.4093617 L73.6702941,42.4093617 L73.6702941,46.2617021 C73.6702941,46.4880851 73.745915,46.6395745 73.8211111,46.7144681 C73.896732,46.7902128 74.047549,46.8655319 74.2735621,46.8655319 L74.5751961,46.8655319 C74.6503922,46.8655319 74.7255882,46.7897872 74.8012092,46.7897872 L74.8012092,46.7897872 L74.8012092,47.6204255 C74.7255882,47.6204255 74.5751961,47.6961702 74.4239542,47.6961702 L74.0471242,47.6961702 C73.6698693,47.6961702 73.3682353,47.6204255 73.1422222,47.4697872 C72.9157843,47.3187234 72.7649673,47.0165957 72.7649673,46.5634043 L72.7649673,42.4846809 L71.9356863,42.4846809 L71.9356863,41.6544681 L71.9361111,41.6544681 Z" id="Shape" fill="#375F9B"></path>
                <path d="M76.3854248,41.6544681 L77.2903268,41.6544681 L77.2903268,47.6208511 L76.3854248,47.6208511 L76.3854248,41.6544681 Z M76.3854248,39.3880851 L77.2903268,39.3880851 L77.2903268,40.5208511 L76.3854248,40.5208511 L76.3854248,39.3880851 Z" id="Shape" fill="#375F9B"></path>
                <path d="M78.420817,41.6544681 L79.4013399,41.6544681 L80.6078758,45.4306383 C80.6834967,45.5817021 80.6834967,45.7331915 80.7586928,45.8838298 C80.8343137,46.0344681 80.8343137,46.1859574 80.9095098,46.2617021 C80.9851307,46.4123404 80.9851307,46.5638298 81.0603268,46.7144681 L81.0603268,46.7144681 C81.0603268,46.5638298 81.1359477,46.4123404 81.2111438,46.2617021 C81.2867647,46.1106383 81.2867647,45.9595745 81.3619608,45.8838298 C81.4375817,45.7331915 81.4375817,45.5817021 81.5127778,45.5059574 L82.7949346,41.7297872 L83.7754575,41.7297872 L81.6640196,47.6961702 L80.6083007,47.6961702 L78.420817,41.6544681 Z" id="Shape" fill="#375F9B"></path>
                <path d="M87.3190196,47.7723404 C86.8665686,47.7723404 86.4897386,47.6965957 86.1124837,47.5459574 C85.7356536,47.3948936 85.4340196,47.1680851 85.2075817,46.8659574 C84.9815686,46.5638298 84.7551307,46.2617021 84.6799346,45.8838298 C84.5291176,45.5059574 84.4534967,45.1285106 84.4534967,44.6753191 C84.4534967,44.2221277 84.5291176,43.8446809 84.6799346,43.4668085 C84.8307516,43.0889362 84.9815686,42.7114894 85.2832026,42.4846809 C85.5092157,42.1825532 85.8108497,41.9561702 86.1881046,41.8046809 C86.5649346,41.6540426 86.9421895,41.5782979 87.3190196,41.5782979 C87.7714706,41.5782979 88.1487255,41.6540426 88.5255556,41.8046809 C88.9023856,41.9557447 89.1288235,42.1825532 89.3548366,42.4846809 C89.5812745,42.7868085 89.7320915,43.1646809 89.8829085,43.5421277 C90.0337255,43.9195745 90.0337255,44.372766 90.0337255,44.9012766 L85.4340196,44.9012766 C85.4340196,45.2034043 85.5092157,45.5055319 85.5848366,45.7323404 C85.6600327,45.9587234 85.8108497,46.1851064 85.9616667,46.4119149 C86.1124837,46.6387234 86.3389216,46.7897872 86.5649346,46.8651064 C86.7913725,46.9408511 87.0930065,47.0157447 87.3946405,47.0157447 C87.8470915,47.0157447 88.2243464,46.9404255 88.4503595,46.713617 C88.7519935,46.487234 88.9028105,46.1851064 89.0536275,45.807234 L89.9585294,45.807234 C89.8077124,46.487234 89.5060784,46.9404255 89.0536275,47.3178723 C88.6007516,47.6208511 87.9974837,47.7723404 87.3190196,47.7723404 Z M87.3190196,42.2587234 C87.0173856,42.2587234 86.7913725,42.3344681 86.5649346,42.4093617 C86.3389216,42.4851064 86.1881046,42.6361702 86.0372876,42.787234 C85.8864706,42.9382979 85.7356536,43.1651064 85.6600327,43.3914894 C85.5848366,43.6178723 85.5092157,43.8446809 85.5092157,44.1468085 L89.0532026,44.1468085 C89.0532026,43.5425532 88.8271895,43.0893617 88.5255556,42.7114894 C88.2239216,42.4093617 87.8470915,42.2587234 87.3190196,42.2587234 Z" id="Shape" fill="#375F9B"></path>
                <path d="M96.2924183,47.7723404 C95.8399673,47.7723404 95.4627124,47.6965957 95.0858824,47.5459574 C94.7086275,47.3948936 94.4069935,47.1680851 94.1809804,46.8659574 C93.9545425,46.5638298 93.7285294,46.2617021 93.5777124,45.8838298 C93.4268954,45.5059574 93.3512745,45.1285106 93.3512745,44.6753191 C93.3512745,44.2221277 93.4264706,43.8446809 93.5777124,43.4668085 C93.7285294,43.0889362 93.8793464,42.7114894 94.1809804,42.4846809 C94.4069935,42.1825532 94.7086275,41.9561702 95.0858824,41.8046809 C95.4627124,41.6540426 95.8399673,41.5782979 96.2924183,41.5782979 C96.7448693,41.5782979 97.1216993,41.6540426 97.4989542,41.8046809 C97.8762092,41.9557447 98.1778431,42.1825532 98.4038562,42.4846809 C98.6302941,42.7868085 98.8563072,43.0889362 99.0071242,43.4668085 C99.1579412,43.8446809 99.2335621,44.2217021 99.2335621,44.6753191 C99.2335621,45.1280851 99.1579412,45.5059574 99.0071242,45.8838298 C98.8563072,46.2617021 98.7054902,46.5638298 98.4038562,46.8659574 C98.1778431,47.1680851 97.8762092,47.3944681 97.4989542,47.5459574 C97.1216993,47.6965957 96.7448693,47.7723404 96.2924183,47.7723404 Z M96.2924183,47.0165957 C96.5940523,47.0165957 96.8956863,46.9412766 97.1216993,46.8659574 C97.3481373,46.7148936 97.5741503,46.5638298 97.7249673,46.3374468 C97.8757843,46.1106383 98.0266013,45.8842553 98.1017974,45.5821277 C98.1774183,45.28 98.2526144,44.9778723 98.2526144,44.6757447 C98.2526144,44.373617 98.1774183,44.0714894 98.1017974,43.7693617 C98.0266013,43.467234 97.8757843,43.2408511 97.7249673,43.0140426 C97.5741503,42.7876596 97.3477124,42.6365957 97.1216993,42.4855319 C96.8956863,42.3348936 96.5940523,42.3348936 96.2924183,42.3348936 C95.9907843,42.3348936 95.6891503,42.4102128 95.4627124,42.4855319 C95.2366993,42.6365957 95.0102614,42.7876596 94.8594444,43.0140426 C94.7086275,43.2408511 94.5578105,43.467234 94.4826144,43.7693617 C94.4069935,44.0714894 94.3317974,44.373617 94.3317974,44.6757447 C94.3317974,44.9778723 94.4069935,45.28 94.4826144,45.5821277 C94.5578105,45.8842553 94.7086275,46.1106383 94.8594444,46.3374468 C95.0102614,46.5638298 95.2366993,46.7148936 95.4627124,46.8659574 C95.6891503,46.9412766 95.9907843,47.0165957 96.2924183,47.0165957 Z" id="Shape" fill="#375F9B"></path>
                <polygon id="Shape" fill="#375F9B" points="102.249477 44.5242553 100.288856 41.6544681 101.344575 41.6544681 102.777549 43.8446809 102.777549 43.8446809 104.210098 41.6544681 105.265817 41.6544681 103.305196 44.3731915 105.642647 47.6208511 104.511732 47.6208511 102.777549 45.0531915 102.777549 45.0531915 101.042941 47.6208511 99.9872222 47.6208511"></polygon>
                <path d="M107.603268,49.5846809 L107.151242,49.5846809 C107.000425,49.5846809 106.924804,49.5089362 106.773987,49.5089362 L106.773987,48.6782979 L106.849183,48.6782979 C106.924804,48.7540426 107,48.7540426 107.075621,48.7540426 L107.452876,48.7540426 C107.678889,48.7540426 107.829706,48.6782979 107.980523,48.6029787 C108.130915,48.527234 108.282157,48.3008511 108.357778,47.9987234 L108.583791,47.3944681 L106.245915,41.5787234 L107.226438,41.5787234 L108.659412,45.2795745 C108.734608,45.4302128 108.734608,45.5817021 108.809804,45.6574468 C108.885425,45.8080851 108.885425,45.8838298 108.960621,46.0348936 C109.035817,46.1859574 109.035817,46.3374468 109.111013,46.412766 L109.111013,46.412766 C109.186634,46.2621277 109.186634,46.186383 109.26183,46.0348936 C109.337026,45.8842553 109.337026,45.8085106 109.412222,45.6574468 C109.487843,45.506383 109.487843,45.3553191 109.563039,45.2795745 L110.919967,41.5787234 L111.90049,41.5787234 L109.336601,47.9987234 C109.186209,48.3008511 109.110588,48.527234 108.959771,48.7540426 C108.808954,48.9804255 108.733333,49.1314894 108.582516,49.2068085 C108.431699,49.3578723 108.280882,49.4331915 108.130065,49.4331915 C107.904902,49.5846809 107.754085,49.5846809 107.603268,49.5846809 Z" id="Shape" fill="#375F9B"></path>
                <path d="M115.29451,49.5846809 C114.540425,49.5846809 113.937157,49.433617 113.484706,49.1314894 C113.032255,48.8293617 112.805817,48.4519149 112.805817,47.9229787 L113.635098,47.9229787 C113.710719,48.2251064 113.861536,48.4519149 114.16317,48.6029787 C114.464804,48.7540426 114.841634,48.8293617 115.294085,48.8293617 C115.821732,48.8293617 116.274608,48.6787234 116.576242,48.4519149 C116.877876,48.2251064 117.028268,47.8476596 117.028268,47.3187234 L117.028268,46.4880851 L117.028268,46.4880851 C116.802255,46.7902128 116.576242,47.0165957 116.274608,47.1680851 C116.04817,47.3187234 115.67134,47.3944681 115.218889,47.3944681 C114.841634,47.3944681 114.465229,47.3187234 114.163595,47.1680851 C113.861961,47.0170213 113.560327,46.7902128 113.333889,46.5638298 C113.107876,46.3374468 112.957059,45.9595745 112.806242,45.6574468 C112.65585,45.2795745 112.65585,44.9021277 112.65585,44.4489362 C112.65585,43.9957447 112.731046,43.5425532 112.881863,43.2404255 C113.032255,42.8625532 113.183497,42.5604255 113.40951,42.3340426 C113.635523,42.107234 113.937157,41.8808511 114.238791,41.7297872 C114.540425,41.5787234 114.842059,41.5029787 115.219314,41.5029787 C115.671765,41.5029787 116.04902,41.5787234 116.275033,41.7297872 C116.576667,41.8804255 116.80268,42.107234 117.028693,42.4093617 L117.028693,42.4093617 L117.028693,41.6544681 L117.933595,41.6544681 L117.933595,47.3191489 C117.933595,47.6970213 117.858399,48.0744681 117.783203,48.3012766 C117.632386,48.6034043 117.481569,48.8297872 117.255556,49.0565957 C117.029118,49.2829787 116.727484,49.3587234 116.42585,49.5093617 C116.048595,49.5093617 115.671765,49.5846809 115.29451,49.5846809 Z M115.219314,46.6395745 C115.596569,46.6395745 115.822582,46.5638298 116.048595,46.4885106 C116.275033,46.3378723 116.501046,46.186383 116.576667,46.0357447 C116.727059,45.8089362 116.80268,45.5825532 116.878301,45.3557447 C116.953922,45.053617 116.953922,44.8268085 116.953922,44.4493617 C116.953922,43.7693617 116.803105,43.3161702 116.501471,42.9387234 C116.199837,42.5608511 115.747386,42.4097872 115.144118,42.4097872 C114.616471,42.4097872 114.16402,42.6365957 113.862386,43.0140426 C113.560752,43.3919149 113.485131,43.9204255 113.485131,44.6004255 C113.485131,45.2804255 113.635523,45.8089362 113.937157,46.1868085 C114.238791,46.4123404 114.691242,46.6395745 115.219314,46.6395745 Z" id="Shape" fill="#375F9B"></path>
                <path d="M122.156895,47.7723404 C121.704444,47.7723404 121.32719,47.6965957 120.949935,47.5459574 C120.573105,47.3948936 120.271471,47.1680851 120.045033,46.8659574 C119.81902,46.5638298 119.593007,46.2617021 119.517386,45.8838298 C119.366993,45.5059574 119.291373,45.1285106 119.291373,44.6753191 C119.291373,44.2221277 119.366993,43.8446809 119.517386,43.4668085 C119.668203,43.0889362 119.81902,42.7114894 120.120654,42.4846809 C120.346667,42.1825532 120.648725,41.9561702 121.025556,41.8046809 C121.40281,41.6540426 121.779641,41.5782979 122.156895,41.5782979 C122.608922,41.5782979 122.986176,41.6540426 123.363431,41.8046809 C123.740261,41.9557447 123.966699,42.1825532 124.192712,42.4846809 C124.418725,42.7868085 124.569967,43.1646809 124.720359,43.5421277 C124.871176,43.9195745 124.871176,44.372766 124.871176,44.9012766 L120.271471,44.9012766 C120.271471,45.2034043 120.346667,45.5055319 120.421863,45.7323404 C120.497484,45.9587234 120.648301,46.1851064 120.799118,46.4119149 C120.94951,46.6387234 121.176373,46.7897872 121.402386,46.8651064 C121.628399,46.9404255 121.930033,47.0157447 122.231667,47.0157447 C122.684118,47.0157447 123.061373,46.9404255 123.287386,46.713617 C123.58902,46.487234 123.739412,46.1851064 123.890654,45.807234 L124.795556,45.807234 C124.644739,46.487234 124.343105,46.9404255 123.890654,47.3178723 C123.438203,47.6208511 122.834935,47.7723404 122.156895,47.7723404 Z M122.156895,42.2587234 C121.855261,42.2587234 121.628824,42.3344681 121.40281,42.4093617 C121.176797,42.4851064 121.025556,42.6361702 120.875163,42.787234 C120.724346,42.9382979 120.573529,43.1651064 120.497908,43.3914894 C120.422288,43.6178723 120.347092,43.8446809 120.347092,44.1468085 L123.891503,44.1468085 C123.891503,43.5425532 123.66549,43.0893617 123.363856,42.7114894 C123.061797,42.4093617 122.684542,42.2587234 122.156895,42.2587234 Z" id="Shape" fill="#375F9B"></path>
                <path d="M127.208627,42.4093617 L127.208627,42.4093617 C127.434641,42.107234 127.736275,41.8808511 128.037908,41.7297872 C128.339542,41.5787234 128.716797,41.5029787 129.169248,41.5029787 C129.772516,41.5029787 130.300163,41.6540426 130.601797,42.0319149 C130.979052,42.3340426 131.129444,42.8625532 131.129444,43.4668085 L131.129444,47.6208511 L130.224542,47.6208511 L130.224542,43.5425532 C130.224542,43.1646809 130.07415,42.8625532 129.847288,42.6361702 C129.621275,42.4093617 129.24402,42.3340426 128.86719,42.3340426 C128.640752,42.3340426 128.414739,42.4093617 128.188301,42.4846809 C127.961863,42.56 127.811046,42.6357447 127.660654,42.7868085 C127.509837,42.9378723 127.434216,43.0889362 127.283399,43.3153191 C127.207778,43.5421277 127.132582,43.7685106 127.132582,43.9953191 L127.132582,47.6208511 L126.22768,47.6208511 L126.22768,41.6544681 L127.132582,41.6544681 L127.132582,42.4093617 L127.208627,42.4093617 Z" id="Shape" fill="#375F9B"></path>
            </g>
        </g>
    </g>
</svg>